<?xml version="1.0" standalone="no"?><!DOCTYPE svg PUBLIC "-//W3C//DTD SVG 1.1//EN" "http://www.w3.org/Graphics/SVG/1.1/DTD/svg11.dtd"><svg class="icon" width="200px" height="200.00px" viewBox="0 0 1024 1024" version="1.1" xmlns="http://www.w3.org/2000/svg"><path d="M757.1 526h-390c-8.3 0-15-6.7-15-15s6.7-15 15-15h390c8.3 0 15 6.7 15 15s-6.7 15-15 15zM757.1 727h-390c-8.3 0-15-6.7-15-15s6.7-15 15-15h390c8.3 0 15 6.7 15 15s-6.7 15-15 15zM277.1 337c-13.8 0-25-11.2-25-25s11.2-25 25-25 25 11.2 25 25-11.2 25-25 25zM277.1 536c-13.8 0-25-11.2-25-25s11.2-25 25-25 25 11.2 25 25-11.2 25-25 25zM277.1 737c-13.8 0-25-11.2-25-25s11.2-25 25-25 25 11.2 25 25-11.2 25-25 25zM757.1 327h-390c-8.3 0-15-6.7-15-15s6.7-15 15-15h390c8.3 0 15 6.7 15 15s-6.7 15-15 15z" fill="#333333" /></svg>