<?xml version="1.0" standalone="no"?><!DOCTYPE svg PUBLIC "-//W3C//DTD SVG 1.1//EN" "http://www.w3.org/Graphics/SVG/1.1/DTD/svg11.dtd"><svg class="icon" width="200px" height="116.70px" viewBox="0 0 1755 1024" version="1.1" xmlns="http://www.w3.org/2000/svg"><path d="M1291.09333331 619.88571402H437.51619031c-21.942857 0-39.68 17.737143-39.68 39.68v36.205715c0 21.942857 17.737143 39.68 39.68 39.68h853.577143c21.942857 0 39.68-17.737143 39.68-39.68v-36.205715c0-21.942857-17.737143-39.68-39.68-39.68zM434.40761931 502.85714302h853.577143c21.942857 0 39.68-17.737143 39.68-39.68v-36.205714c0-21.942857-17.737143-39.68-39.68-39.68H434.40761931c-21.942857 0-39.68 17.737143-39.68 39.68v36.205714c0 21.942857 17.92 39.68 39.68 39.68zM434.04190431 268.06857102h853.577143c21.942857 0 39.68-17.737143 39.68-39.68v-36.205714c0-21.942857-17.737143-39.68-39.68-39.68H434.04190431c-21.942857 0-39.68 17.737143-39.68 39.68v36.205714c-0.182857 21.76 17.737143 39.68 39.68 39.68z" /></svg>