<?xml version="1.0" standalone="no"?><!DOCTYPE svg PUBLIC "-//W3C//DTD SVG 1.1//EN" "http://www.w3.org/Graphics/SVG/1.1/DTD/svg11.dtd"><svg class="icon" width="200px" height="200.00px" viewBox="0 0 1024 1024" version="1.1" xmlns="http://www.w3.org/2000/svg"><path d="M512 542.293333a149.333333 149.333333 0 1 0-149.333333-149.333333 149.333333 149.333333 0 0 0 149.333333 149.333333z m0-256a106.666667 106.666667 0 1 1-106.666667 106.666667 106.666667 106.666667 0 0 1 106.666667-106.666667zM864 786.773333L746.666667 583.68l55.253333-95.786667a64 64 0 0 0 8.533333-32v-125.653333a64 64 0 0 0-8.533333-32l-64-109.013333a62.08 62.08 0 0 0-23.466667-23.466667l-108.8-62.72A64 64 0 0 0 576 94.293333h-125.866667a64 64 0 0 0-32 8.746667l-108.8 62.72a62.08 62.08 0 0 0-23.466666 23.466667l-64 109.44a64 64 0 0 0-8.533334 32v125.653333a64 64 0 0 0 8.533334 32l55.466666 95.36-117.333333 203.093333a29.226667 29.226667 0 0 0 2.986667 34.133334 29.866667 29.866667 0 0 0 33.066666 8.746666L306.346667 789.333333l20.053333 115.84a29.866667 29.866667 0 0 0 55.253333 9.813334l128-223.146667h3.413334l128 223.146667a29.866667 29.866667 0 0 0 55.253333-9.813334l21.333333-115.84 110.293334 40.533334a29.866667 29.866667 0 0 0 33.066666-8.746667 29.226667 29.226667 0 0 0 2.986667-34.346667zM256 455.893333v-125.653333a22.613333 22.613333 0 0 1 2.773333-10.666667l62.933334-109.013333a21.333333 21.333333 0 0 1 7.893333-7.68l108.8-62.933333a21.333333 21.333333 0 0 1 10.666667-2.986667H576a21.333333 21.333333 0 0 1 10.666667 2.986667l108.8 64a21.333333 21.333333 0 0 1 7.893333 7.68l61.866667 108.373333a22.613333 22.613333 0 0 1 2.773333 10.666667v125.653333a22.613333 22.613333 0 0 1-2.773333 10.666667L702.293333 576a21.333333 21.333333 0 0 1-7.893333 7.68l-108.8 62.933333a21.333333 21.333333 0 0 1-10.666667 2.773334h-125.866666a21.333333 21.333333 0 0 1-10.666667-2.773334l-108.8-62.933333a21.333333 21.333333 0 0 1-7.893333-7.68l-62.933334-109.013333a22.613333 22.613333 0 0 1-2.773333-11.093334z m106.666667 406.826667l-14.08-80.853333a42.666667 42.666667 0 0 0-21.333334-29.653334 42.666667 42.666667 0 0 0-36.053333-3.2l-77.013333 28.373334L306.133333 618.666667a14.933333 14.933333 0 0 1 2.133334 1.706666l108.8 62.293334a64 64 0 0 0 32 8.533333h11.946666z m369.92-113.706667a42.666667 42.666667 0 0 0-36.053334 3.2 42.666667 42.666667 0 0 0-21.333333 29.653334L661.333333 862.72l-98.56-170.666667H576a64 64 0 0 0 32-8.533333l108.8-62.72a14.933333 14.933333 0 0 1 2.133333-1.706667l91.52 158.72z" /></svg>