<?xml version="1.0" standalone="no"?><!DOCTYPE svg PUBLIC "-//W3C//DTD SVG 1.1//EN" "http://www.w3.org/Graphics/SVG/1.1/DTD/svg11.dtd"><svg class="icon" width="200px" height="200.00px" viewBox="0 0 1024 1024" version="1.1" xmlns="http://www.w3.org/2000/svg"><path d="M569.8 683.9H432.4c-86.8 0-157.5-70.7-157.5-157.5V268c0-86.8 70.7-157.5 157.5-157.5h137.4c86.8 0 157.5 70.7 157.5 157.5v258.4c0 86.8-70.7 157.5-157.5 157.5zM432.4 185.5c-21.9 0-42.6 8.6-58.2 24.3s-24.3 36.3-24.3 58.2v258.4c0 21.9 8.6 42.6 24.3 58.2s36.3 24.3 58.2 24.3h137.4c21.9 0 42.6-8.6 58.2-24.3s24.3-36.3 24.3-58.2V268c0-21.9-8.6-42.6-24.3-58.2s-36.3-24.3-58.2-24.3H432.4zM716.3 905.1H285.8c-73.9 0-133.8-59.9-133.8-133.8V466.4h698.1v304.9c0 73.9-59.9 133.8-133.8 133.8z" /></svg>